<svg xmlns:xlink="http://www.w3.org/1999/xlink" xmlns="http://www.w3.org/2000/svg" version="1.1" width="22px" height="22px" class="__web-inspector-hide-shortcut__">
  <g transform="matrix(1 0 0 1 -1392 -175 )">
    <path d="M 12.704427083333334 18.204427083333336  C 12.790364583333334 18.118489583333336  12.833333333333334 18.008680555555554  12.833333333333334 17.875  L 12.833333333333334 15.125  C 12.833333333333334 14.991319444444441  12.790364583333334 14.881510416666668  12.704427083333334 14.795572916666668  C 12.618489583333334 14.709635416666668  12.508680555555557 14.666666666666668  12.375 14.666666666666668  L 9.625 14.666666666666668  C 9.491319444444446 14.666666666666668  9.381510416666668 14.709635416666668  9.295572916666668 14.795572916666668  C 9.209635416666668 14.881510416666668  9.166666666666668 14.991319444444441  9.166666666666668 15.125  L 9.166666666666668 17.875  C 9.166666666666668 18.008680555555554  9.209635416666668 18.118489583333336  9.295572916666668 18.204427083333336  C 9.381510416666668 18.290364583333336  9.491319444444446 18.333333333333336  9.625 18.333333333333336  L 12.375 18.333333333333336  C 12.508680555555557 18.333333333333336  12.618489583333334 18.290364583333336  12.704427083333334 18.204427083333336  Z M 16.320963541666664 9.41015625  C 16.440321180555557 9.05685763888889  16.5 8.67013888888889  16.5 8.25  C 16.5 7.4097222222222205  16.235026041666664 6.631510416666666  15.705078125 5.915364583333334  C 15.175130208333334 5.19921875  14.513888888888891 4.6453993055555545  13.721354166666666 4.25390625  C 12.928819444444446 3.862413194444443  12.1171875 3.666666666666666  11.286458333333334 3.666666666666666  C 8.966145833333332 3.666666666666666  7.194878472222223 4.68359375  5.97265625 6.717447916666666  C 5.829427083333334 6.946614583333334  5.867621527777779 7.147135416666666  6.087239583333333 7.319010416666666  L 7.977864583333333 8.751302083333334  C 8.044704861111112 8.80859375  8.135416666666668 8.837239583333334  8.25 8.837239583333334  C 8.402777777777779 8.837239583333334  8.522135416666668 8.779947916666666  8.608072916666668 8.665364583333334  C 9.114149305555555 8.016059027777777  9.524739583333332 7.576822916666666  9.83984375 7.34765625  C 10.164496527777779 7.118489583333334  10.575086805555555 7.00390625  11.071614583333334 7.00390625  C 11.529947916666666 7.00390625  11.938151041666666 7.128038194444443  12.296223958333334 7.376302083333334  C 12.654296875 7.6245659722222205  12.833333333333334 7.906249999999997  12.833333333333334 8.221354166666666  C 12.833333333333334 8.58420138888889  12.737847222222223 8.875434027777777  12.546875 9.095052083333334  C 12.35590277777778 9.31467013888889  12.03125 9.52951388888889  11.572916666666666 9.739583333333334  C 10.971354166666668 10.006944444444443  10.419921875 10.419921875  9.918619791666668 10.978515625  C 9.417317708333332 11.537109375  9.166666666666668 12.136284722222223  9.166666666666668 12.776041666666668  L 9.166666666666668 13.291666666666668  C 9.166666666666668 13.425347222222223  9.209635416666668 13.53515625  9.295572916666668 13.62109375  C 9.381510416666668 13.70703125  9.491319444444446 13.75  9.625 13.75  L 12.375 13.75  C 12.508680555555557 13.75  12.618489583333334 13.70703125  12.704427083333334 13.62109375  C 12.790364583333334 13.53515625  12.833333333333334 13.425347222222223  12.833333333333334 13.291666666666668  C 12.833333333333334 13.110243055555554  12.93598090277778 12.873914930555554  13.141276041666666 12.582682291666668  C 13.346571180555557 12.291449652777777  13.606770833333334 12.055121527777777  13.921875 11.873697916666668  C 14.227430555555557 11.701822916666668  14.46137152777778 11.565755208333332  14.623697916666666 11.465494791666668  C 14.786024305555557 11.365234375  15.00564236111111 11.198133680555554  15.282552083333334 10.964192708333334  C 15.559461805555557 10.73025173611111  15.77191840277778 10.501085069444443  15.919921875 10.276692708333334  C 16.067925347222225 10.05230034722222  16.20160590277778 9.76345486111111  16.320963541666664 9.41015625  Z M 20.524739583333336 5.478515625  C 21.508246527777775 7.163845486111109  22 9.004340277777775  22 11  C 22 12.995659722222223  21.508246527777775 14.836154513888886  20.524739583333336 16.521484375  C 19.541232638888893 18.20681423611111  18.20681423611111 19.54123263888889  16.521484375 20.524739583333336  C 14.836154513888891 21.50824652777778  12.995659722222223 22  11 22  C 9.004340277777779 22  7.163845486111112 21.50824652777778  5.478515625 20.524739583333336  C 3.7931857638888893 19.54123263888889  2.4587673611111116 18.20681423611111  1.4752604166666667 16.521484375  C 0.49175347222222215 14.836154513888886  0 12.995659722222223  0 11  C 0 9.004340277777775  0.49175347222222215 7.163845486111109  1.4752604166666667 5.478515625  C 2.4587673611111116 3.7931857638888884  3.7931857638888893 2.458767361111109  5.478515625 1.4752604166666659  C 7.163845486111112 0.4917534722222203  9.004340277777779 0  11 0  C 12.995659722222223 0  14.836154513888891 0.4917534722222203  16.521484375 1.4752604166666659  C 18.20681423611111 2.458767361111109  19.541232638888893 3.7931857638888884  20.524739583333336 5.478515625  Z " fill-rule="nonzero" fill="#00a4e4" stroke="none" transform="matrix(1 0 0 1 1392 175 )"/>
  </g>
</svg>